<?xml version='1.0' encoding='utf-8'?>
<svg xmlns="http://www.w3.org/2000/svg" version="1.1" width="1080px" height="2132px" viewBox="0 0 1080 2132"> <g id="layer1"> <g style="fill:rgb(0,0,0); fill-opacity:1.0; stroke-linejoin: miter"> <path d="M408.5545,977.3998L468.2658,977.4005L527.9776,977.39954Q527.9776,1052.8203,527.9776,1128.239Q468.2658,1128.2393,408.5545,1128.2393Q408.5545,1052.8191,408.5545,977.3998 Z"/> </g> <g style="fill:rgb(0,0,0); fill-opacity:1.0; stroke-linejoin: miter"> <path d="M190.81898,650.46027L469.13995,650.4613L747.46075,650.46106Q747.46075,831.4463,747.46075,1012.43207Q469.13995,1012.4323,190.81868,1012.43243Q190.81868,831.4463,190.81898,650.46027 Z"/> </g> <g style="fill:rgb(125,176,202); fill-opacity:1.0; stroke-linejoin: miter"> <path d="M204.94417,666.7963L469.13995,666.79736L733.33563,666.79724Q733.33563,830.46375,733.33563,994.13Q469.13995,994.13,204.94417,994.1301Q204.94417,830.4629,204.94417,666.7963 Z"/> </g> <g style="fill:rgb(0,0,0); fill-opacity:1.0; stroke-linejoin: miter"> <path d="M322.75183,1111.719L468.2658,1111.72L613.7802,1111.7207Q613.7802,1123.2981,613.7802,1134.8762Q468.2658,1134.8762,322.7517,1134.877Q322.7517,1123.2983,322.75183,1111.719 Z"/> </g> <g style="fill:rgb(0,0,0); fill-opacity:1.0; stroke-linejoin: miter"> <path d="M894.95276,1136.0735L891.574,1136.5349Q867.5519,1137.9277,750.9975,1138.7634Q633.6363,1139.5981,474.59637,1139.4402Q322.813,1139.2197,231.81062,1138.1504Q202.65248,1137.8042,183.77577,1137.3965L167.91054,1136.977Q154.83601,1136.5444,154.68898,1136.074Q158.65797,1134.6306,263.09802,1133.6719Q367.53827,1132.7131,524.82086,1132.6763Q682.1037,1132.7126,786.5438,1133.6714Q890.98376,1134.6301,894.95276,1136.0735"/> </g> <g style="fill:rgb(132,194,227); fill-opacity:1.0; stroke-linejoin: miter"> <path d="M550.53436,1112.4336L698.42816,1112.4338L846.32214,1112.435Q846.32214,1125.1118,846.32214,1137.7898Q698.42816,1137.7898,550.53436,1137.7898Q550.53436,1125.1118,550.53436,1112.4336"/> </g> <g style="fill:rgb(132,194,227); fill-opacity:1.0; stroke-linejoin: miter"> <path d="M736.47797,1007.4088L759.2553,1007.4088L782.0323,1007.4098Q782.0323,1067.7095,782.0323,1128.0095Q759.2553,1128.0095,736.47797,1128.0098Q736.47797,1067.7095,736.47797,1007.4088"/> </g> <g style="fill:rgb(132,194,227); fill-opacity:1.0; stroke-linejoin: miter"> <path d="M684.71356,1037.5234L730.2681,1037.5234L730.2681,1128.0095L684.71356,1128.0098L684.71356,1037.5234"/> </g> <g style="fill:rgb(132,194,227); fill-opacity:1.0; stroke-linejoin: miter"> <path d="M632.94916,1061.706L655.7264,1061.706L678.5036,1061.7063Q678.5036,1094.8582,678.5036,1128.0095Q655.7264,1128.0095,632.94916,1128.0098Q632.94916,1094.8582,632.94916,1061.706"/> </g> <g style="fill:rgb(132,194,227); fill-opacity:1.0; stroke-linejoin: miter"> <path d="M788.2423,972.0553L811.01953,972.05554L833.79675,972.0558Q833.7969,1050.0327,833.7969,1128.0095Q811.01965,1128.0095,788.2423,1128.0098Q788.2423,1050.0327,788.2423,972.0553"/> </g> <g style="fill:rgb(132,194,227); fill-opacity:1.0; stroke-linejoin: miter"> <path d="M631.67487,1041.6467L631.67487,1041.6472L631.67487,1041.6487L627.53326,1039.0576L699.0667,992.4486C699.61224,992.0934,700.2681,991.94763,700.9128,992.03845L700.9128,992.03845L734.53107,996.7814L732.57196,997.26917L810.5027,940.64307C811.7057,939.7688,813.38965,940.0353,814.2638,941.2385C815.1382,942.4414,814.8716,944.12537,813.66833,944.99963L813.66833,944.99976L735.73773,1001.6261C735.17267,1002.0365,734.47015,1002.21106,733.7789,1002.1139L733.7789,1002.11414L700.16046,997.3707L702.0064,996.9606L630.4731,1043.5693C629.5948,1044.1411,628.4643,1044.1521,627.5756,1043.596C626.6868,1043.0403,626.2015,1042.0193,626.33136,1040.979L626.33136,1040.9795L626.33136,1040.979C626.5158,1039.5032,627.86163,1038.4565,629.3371,1038.6411C630.8128,1038.8257,631.85956,1040.1711,631.67487,1041.6467 Z"/> </g> <g style="fill:rgb(132,194,227); fill-opacity:1.0; stroke-linejoin: miter"> <path d="M803.6028,935.6924L803.60254,935.6924L815.73926,953.301Q817.1073,945.86487,818.4752,938.42847L803.6028,935.6924"/> </g> <g style="fill:rgb(132,194,227); fill-opacity:1.0; stroke-linejoin: miter"> <path d="M581.1845,1081.5613L603.96185,1081.5615L626.7392,1081.5627Q626.7392,1105.9097,626.7392,1130.2571Q603.96185,1130.2571,581.1845,1130.2573Q581.1845,1105.9097,581.1845,1081.5613"/> </g> <g style="fill:rgb(15,59,82); fill-opacity:0.99607843; stroke-linejoin: miter"> <path d="M550.4637,1136.7227L698.418,1136.7231L846.3727,1136.7244Q846.3727,1137.7131,846.3727,1138.7029Q698.418,1138.7031,550.4637,1138.7034Q550.4637,1137.7131,550.4637,1136.7227"/> </g> <g style="fill:rgb(34,43,50); fill-opacity:1.0; stroke-linejoin: miter"> <path d="M550.5069,1112.54L846.41565,1112.5403L846.41565,1114.5203L550.5069,1114.5205L550.5069,1112.54"/> </g> <g style="fill:rgb(34,43,50); fill-opacity:1.0; stroke-linejoin: miter"> <path d="M788.1875,972.04675L790.15173,972.04675L792.1162,972.0482Q792.1162,1042.6494,792.1162,1113.2522Q790.15173,1113.2522,788.1875,1113.2522Q788.1875,1042.6494,788.1875,972.04675"/> </g> <g style="fill:rgb(34,43,50); fill-opacity:1.0; stroke-linejoin: miter"> <path d="M735.99884,1007.4159L737.9633,1007.41614L739.9277,1007.4164Q739.9277,1060.5376,739.9277,1113.6592Q737.9633,1113.6594,735.9991,1113.6597Q735.9991,1060.5376,735.99884,1007.4159"/> </g> <g style="fill:rgb(34,43,50); fill-opacity:1.0; stroke-linejoin: miter"> <path d="M684.55414,1037.4858L686.5184,1037.4861L688.4826,1037.487Q688.4826,1075.4417,688.4826,1113.3975Q686.5184,1113.3977,684.55414,1113.3977Q684.55414,1075.4417,684.55414,1037.4858"/> </g> <g style="fill:rgb(34,43,50); fill-opacity:1.0; stroke-linejoin: miter"> <path d="M631.9671,1061.6433L633.93134,1061.6436L635.8958,1061.6438Q635.8958,1087.2971,635.8958,1112.9504Q633.93134,1112.9504,631.9671,1112.9504Q631.9671,1087.2971,631.9671,1061.6433"/> </g> <g style="fill:rgb(34,43,50); fill-opacity:1.0; stroke-linejoin: miter"> <path d="M581.15546,1081.5115L583.1198,1081.5115L585.08405,1081.5132Q585.08405,1098.0723,585.08405,1114.6328Q583.1198,1114.6328,581.15546,1114.6328Q581.15546,1098.0723,581.15546,1081.5115"/> </g> <g style="fill:rgb(255,0,0); fill-opacity:1.0; stroke-linejoin: miter"> <path d="M247.03004,1026.2825C216.28445,1026.2825,191.27113,1051.2959,191.27113,1082.0417C191.27113,1112.7871,216.28445,1137.8008,247.03004,1137.8008C277.7755,1137.8008,302.78882,1112.7871,302.78882,1082.0417C302.78882,1051.2959,277.7755,1026.2825,247.03004,1026.2825 Z M247.03004,1126.4214C222.55898,1126.4214,202.6504,1106.5127,202.6504,1082.0417C202.6504,1057.5703,222.55898,1037.6616,247.03004,1037.6616C271.50104,1037.6616,291.40967,1057.5703,291.40967,1082.0417C291.40967,1106.5127,271.50104,1126.4214,247.03004,1126.4214 Z M247.03004,1045.0583C226.6374,1045.0583,210.04703,1061.6487,210.04703,1082.0417C210.04703,1102.4338,226.6374,1119.0249,247.03004,1119.0249C267.42255,1119.0249,284.01306,1102.4338,284.01306,1082.0417C284.01306,1061.6487,267.42255,1045.0583,247.03004,1045.0583 Z M247.03004,1107.645C232.91194,1107.645,221.4264,1096.1594,221.4264,1082.0417C221.4264,1067.9233,232.91194,1056.4377,247.03004,1056.4377C261.14795,1056.4377,272.63354,1067.9233,272.63354,1082.0417C272.63354,1096.1594,261.14795,1107.645,247.03004,1107.645 Z M247.03004,1063.8347C236.9908,1063.8347,228.82301,1072.0024,228.82301,1082.0417C228.82301,1092.0808,236.9908,1100.2485,247.03004,1100.2485C257.06934,1100.2485,265.23694,1092.0808,265.23694,1082.0417C265.23694,1072.0024,257.06934,1063.8347,247.03004,1063.8347 Z M247.03004,1088.8691C243.26534,1088.8691,240.20235,1085.8062,240.20235,1082.0417C240.20235,1078.2769,243.26534,1075.2136,247.03004,1075.2136C250.79463,1075.2136,253.85756,1078.2769,253.85756,1082.0417C253.85756,1085.8062,250.79463,1088.8691,247.03004,1088.8691 Z"/> </g> <g style="fill:rgb(255,255,255); fill-opacity:1.0; stroke-linejoin: miter"> <path d="M247.03004,1045.1262C267.38513,1045.1262,283.9452,1061.6863,283.9452,1082.0417C283.9452,1102.397,267.38513,1118.957,247.03004,1118.957C226.67482,1118.957,210.11496,1102.397,210.11496,1082.0417C210.11496,1061.6863,226.67482,1045.1262,247.03004,1045.1262 Z M247.03004,1037.5942C222.52168,1037.5942,202.5826,1057.533,202.5826,1082.0417C202.5826,1106.55,222.52168,1126.4893,247.03004,1126.4893C271.53845,1126.4893,291.47742,1106.55,291.47742,1082.0417C291.47742,1057.533,271.53845,1037.5942,247.03004,1037.5942 Z"/> </g> <g style="fill:rgb(255,255,255); fill-opacity:1.0; stroke-linejoin: miter"> <path d="M247.03004,1063.9026C257.03192,1063.9026,265.16913,1072.0396,265.16913,1082.0417C265.16913,1092.0435,257.03192,1100.1809,247.03004,1100.1809C237.02815,1100.1809,228.89082,1092.0435,228.89082,1082.0417C228.89082,1072.0396,237.02815,1063.9026,247.03004,1063.9026 Z M247.03004,1056.3699C232.87453,1056.3699,221.35866,1067.8862,221.35866,1082.0417C221.35866,1096.1973,232.87453,1107.7129,247.03004,1107.7129C261.18542,1107.7129,272.70135,1096.1973,272.70135,1082.0417C272.70135,1067.8862,261.18542,1056.3699,247.03004,1056.3699 Z"/> </g> <g style="fill:rgb(255,255,255); fill-opacity:1.0; stroke-linejoin: miter"> <path d="M247.03004,1075.146C243.22792,1075.146,240.13454,1078.239,240.13454,1082.0417C240.13454,1085.8435,243.22792,1088.937,247.03004,1088.937C250.83217,1088.937,253.92543,1085.8435,253.92543,1082.0417C253.92543,1078.239,250.83217,1075.146,247.03004,1075.146 Z"/> </g> <g style="fill:rgb(171,193,206); fill-opacity:1.0; stroke-linejoin: miter"> <path d="M479.1104,878.4729L479.11115,878.4734Q478.4383,896.11365,478.85748,910.7064Q479.13043,905.58594,479.16315,900.26184Q479.1961,894.93774,478.9864,889.4081L479.1104,878.4729"/> </g> <g style="fill:rgb(255,206,84); fill-opacity:1.0; stroke-linejoin: miter"> <path d="M478.36285,908.8762C477.20734,906.4043,475.758,903.24207,474.32648,899.896C468.91595,887.2794,468.12286,882.69446,468.13556,881.0796C468.148,878.6575,468.84552,876.34485,470.14886,874.3877L470.59906,873.7101L470.6065,861.02515L486.86884,862.29834L486.5484,873.7909L486.9986,874.4938C488.27972,876.46436,488.9455,878.7882,488.93573,881.21387C488.92023,882.8252,488.0772,887.40283,482.50873,899.94495C481.0301,903.27234,479.54352,906.4248,478.36285,908.8762 Z"/> </g> <g style="fill:rgb(246,187,66); fill-opacity:1.0; stroke-linejoin: miter"> <path d="M467.9261,858.1195L467.914,872.89905C466.3828,875.19763,465.46985,878.0104,465.45105,881.0657C465.40186,888.8717,478.3211,915.0288,478.3211,915.0288C478.3211,915.0288,491.5688,889.04175,491.62067,881.22766C491.63702,878.18066,490.75995,875.3506,489.25482,873.03015L489.62213,859.8231L467.9261,858.1195 Z M483.8863,872.8793L483.84235,874.55164L484.7508,875.95386C485.74225,877.4856,486.26056,879.30066,486.24847,881.19653C486.24457,881.82117,485.9278,885.6185,480.06256,898.8364C479.49982,900.0958,478.9427,901.3269,478.39752,902.5027C477.86957,901.318,477.32562,900.0819,476.7868,898.8181C471.0855,885.52563,470.81366,881.7268,470.82318,881.0967C470.83246,879.19836,471.3764,877.39197,472.38678,875.87915L473.28754,874.52466L473.28937,872.8994L473.28998,863.9335L484.11017,864.77893L483.8863,872.8793 Z"/> </g> <g style="fill:rgb(255,0,10); fill-opacity:1.0; stroke-linejoin: miter"> <path d="M498.79425,863.9707C499.37018,862.41003,499.91534,860.8187,500.43,859.208L506.85907,822.0851C506.92828,820.37024,506.96698,818.6478,506.98334,816.92505C506.9843,815.9271,506.9848,814.9287,506.9688,813.93567C516.7,823.9585,522.8819,839.33154,522.7764,856.5299C522.738,862.2589,522.0086,867.7717,520.6851,872.9514C520.67645,872.98755,520.62225,873.19116,520.62225,873.19116C520.2862,874.2986,519.25214,875.1034,518.0368,875.0958C517.6324,875.0907,517.25116,874.99634,516.9123,874.8324C516.9123,874.8324,516.64813,874.6998,516.5451,874.62964L498.6408,864.37683C498.69513,864.24036,498.74042,864.10645,498.79425,863.9707 Z"/> </g> <g style="fill:rgb(255,0,10); fill-opacity:1.0; stroke-linejoin: miter"> <path d="M451.73755,813.5802C451.71167,814.5753,451.70007,815.57336,451.69104,816.5741C451.68262,818.29407,451.69946,820.01697,451.75024,821.7295C448.4613,826.041,457.70837,858.93884,457.70837,858.93884C458.20593,860.55334,458.72852,862.1487,459.28442,863.7218C459.33118,863.859,459.38318,863.9905,459.4297,864.1272L441.39478,874.1565C441.29382,874.2228,441.02527,874.3546,441.02527,874.3546C440.68433,874.5143,440.30444,874.6012,439.89465,874.6012C438.6792,874.5936,437.66113,873.7761,437.33643,872.66113C437.33643,872.66113,437.28455,872.4634,437.2793,872.4238C436.01807,867.23047,435.35608,861.71155,435.39233,855.9802C435.50073,838.77344,441.87512,823.4795,451.73755,813.5802 Z"/> </g> <g style="fill:rgb(255,255,255); fill-opacity:1.0; stroke-linejoin: miter"> <path d="M449.98547,815.58777C449.85217,837.14636,454.26733,857.2612,461.76196,873.57104C462.1969,874.47144,463.10168,875.09595,464.16968,875.09985L493.7603,875.2914C494.82513,875.29236,495.74078,874.6825,496.18683,873.78735C503.88898,857.5707,508.55707,837.51843,508.69025,815.95984C508.90656,782.46594,498.2896,752.79315,481.8758,734.75684C481.38837,734.2184,480.64056,733.83167,479.85724,733.8241C479.0683,733.8218,478.31903,734.19617,477.81927,734.73425C461.17993,752.5618,450.1958,782.0991,449.98547,815.58777 Z"/> </g> <g style="fill:rgb(67,74,84); fill-opacity:1.0; stroke-linejoin: miter"> <path d="M486.97174,809.7339C484.92914,811.75073,482.22345,812.84863,479.3576,812.8308C476.48895,812.80994,473.79706,811.67737,471.78033,809.63574C469.7635,807.59314,468.6651,804.8876,468.68024,802.01843C468.6983,799.15283,469.83612,796.4552,471.87286,794.44434C473.91534,792.42737,476.62067,791.3292,479.4926,791.3418C485.41718,791.3816,490.20697,796.23193,490.16962,802.1538C490.1458,805.02515,489.01398,807.71716,486.9771,809.7283C486.97174,809.7339,486.97174,809.7339,486.97174,809.7339 Z"/> </g> <g style="fill:rgb(67,74,84); fill-opacity:1.0; stroke-linejoin: miter"> <path d="M486.76862,841.9618C484.72638,843.97876,482.02338,845.07947,479.15485,845.05884C476.28864,845.0409,473.59418,843.9061,471.5799,841.86633C469.56317,839.824,468.46234,837.1155,468.47772,834.2467C468.49554,831.3805,469.62775,828.68933,471.67023,826.6725C473.7127,824.655,476.41803,823.5575,479.28998,823.5698C485.2143,823.61,490.00446,828.46045,489.96698,834.38196C489.94574,837.25635,488.81122,839.9448,486.76862,841.9618L486.76874,841.96204 Z"/> </g> <g style="fill:rgb(64,190,174); fill-opacity:1.0; stroke-linejoin: miter"> <path d="M479.51227,788.65686C475.92438,788.6373,472.53925,790.0127,469.9864,792.5337C467.4389,795.0491,466.02112,798.4165,465.99573,802.0045C465.97644,805.5869,467.3487,808.9745,469.86688,811.5248C472.388,814.0774,475.7553,815.4901,479.34064,815.51843C482.9284,815.53796,486.31085,814.1594,488.8581,811.6437C491.41107,809.12317,492.83185,805.7589,492.857,802.17065C492.90387,794.766,486.91705,788.70337,479.51227,788.65686 Z M487.482,802.13696C487.4654,804.36426,486.555,806.3716,485.08502,807.8235C483.62067,809.2693,481.59625,810.1599,479.37482,810.1432C474.92523,810.11536,471.34015,806.48474,471.36835,802.0353C471.37958,799.8137,472.29816,797.8036,473.7625,796.3574C475.23273,794.90576,477.24823,794.0183,479.4759,794.0292C483.9251,794.0574,487.51007,797.6876,487.482,802.13696 Z"/> </g> <g style="fill:rgb(64,190,174); fill-opacity:1.0; stroke-linejoin: miter"> <path d="M469.7868,824.7649C467.23358,827.2859,465.8186,830.64453,465.79297,834.2328C465.76758,837.82043,467.1458,841.2031,469.6668,843.756C472.18524,846.306,475.54694,847.724,479.13776,847.7466C482.7259,847.76636,486.1054,846.39636,488.6584,843.87537C491.21124,841.354,492.62946,837.98706,492.65472,834.3988C492.7016,826.9946,486.71454,820.93164,479.31,820.8849C475.722,820.8657,472.33978,822.2438,469.7868,824.7649 Z M487.27936,834.3646C487.2657,836.5951,486.35223,838.59985,484.88214,840.05115C483.41742,841.4973,481.39642,842.39124,479.1718,842.37146C474.7221,842.3436,471.1374,838.713,471.16534,834.26355C471.17657,832.0415,472.0954,830.03186,473.56,828.5858C475.02985,827.1343,477.04547,826.2461,479.27325,826.2571C483.72272,826.28516,487.30743,829.91565,487.27936,834.3646 Z"/> </g> <g style="fill:rgb(255,0,10); fill-opacity:1.0; stroke-linejoin: miter"> <path d="M499.72955,764.6094L459.59717,764.35974C464.29028,752.6597,470.51263,742.5641,477.81927,734.73425C478.31903,734.19617,479.0683,733.8218,479.85724,733.8241C480.64056,733.83167,481.38837,734.2184,481.8758,734.75684C489.0915,742.6813,495.18085,752.85443,499.72955,764.6094 Z"/> </g> <g style="fill:rgb(99,112,121); fill-opacity:1.0; stroke-linejoin: miter"> <path d="M285.45294,1058.9375L325.21704,1059.1692L364.98145,1059.4001Q364.7647,1096.638,364.54797,1133.8762Q324.7837,1133.6445,285.01978,1133.4136Q285.2364,1096.1753,285.45294,1058.9375"/> </g> <g style="fill:rgb(60,70,79); fill-opacity:1.0; stroke-linejoin: miter"> <path d="M278.73468,1132.8071C278.72662,1135.353,280.7834,1137.4221,283.33032,1137.4292L364.00433,1137.666C366.55145,1137.6736,368.62012,1135.6162,368.62927,1133.071L368.8578,1054.7009L278.96356,1054.4368L278.73468,1132.8071 Z M348.07874,1066.1641C348.08618,1063.6187,350.15558,1061.56,352.7024,1061.5679L359.6173,1061.5881C362.16425,1061.5969,364.2215,1063.6653,364.2135,1066.2117L364.20685,1068.5161C364.19934,1071.0635,362.13013,1073.1208,359.58417,1073.1135L352.66876,1073.0933C350.12177,1073.0854,348.06396,1071.0156,348.07153,1068.4695L348.07874,1066.1641 Z M348.0251,1084.605C348.03253,1082.0574,350.10205,1080.0,352.64886,1080.0088L359.5633,1080.0278C362.1103,1080.0359,364.16754,1082.1057,364.16058,1084.6519L364.15332,1086.957C364.14606,1089.5029,362.0766,1091.56,359.52966,1091.5525L352.6148,1091.5322C350.0677,1091.5247,348.01044,1089.456,348.01782,1086.9094L348.0251,1084.605 Z M347.97162,1103.0442C347.97864,1100.498,350.04797,1098.4402,352.59497,1098.448L359.50964,1098.4685C362.0567,1098.4758,364.114,1100.5442,364.10645,1103.092L364.04578,1123.8369C364.03833,1126.383,361.96942,1128.4402,359.4226,1128.4331L352.50787,1128.4124C349.96075,1128.4048,347.90338,1126.3362,347.91046,1123.7886L347.97162,1103.0442 Z M327.33325,1066.103C327.3418,1063.5569,329.41003,1061.5002,331.95703,1061.5063L338.87225,1061.5283C341.41937,1061.5347,343.47614,1063.6047,343.46863,1066.1514L343.46204,1068.456C343.45502,1071.0027,341.38568,1073.0598,338.83868,1073.0522L331.92334,1073.032C329.37646,1073.0244,327.31964,1070.9558,327.3266,1068.4084L327.33325,1066.103 Z M327.2796,1084.544C327.28705,1081.9973,329.35645,1079.94,331.90356,1079.9478L338.81885,1079.9668C341.36584,1079.9756,343.42267,1082.0447,343.4151,1084.592L343.40894,1086.896C343.40027,1089.4417,341.33154,1091.4988,338.7846,1091.491L331.86926,1091.4717C329.32245,1091.4634,327.26556,1089.3948,327.27338,1086.8486L327.2796,1084.544 Z M327.22607,1102.9829C327.23303,1100.4368,329.3025,1098.3792,331.8495,1098.387L338.76477,1098.4075C341.3117,1098.4146,343.36853,1100.4836,343.3615,1103.031L343.35492,1105.3357C343.34686,1107.8823,341.27863,1109.9404,338.73157,1109.9324L331.81622,1109.9119C329.26935,1109.9045,327.21204,1107.8357,327.2196,1105.2881L327.22607,1102.9829 Z M327.17218,1121.4233C327.17963,1118.8757,329.24835,1116.8191,331.7953,1116.8254L338.71075,1116.846C341.25763,1116.8535,343.3144,1118.9238,343.30743,1121.47L343.3009,1123.7751C343.2932,1126.3223,341.22443,1128.3787,338.67755,1128.3716L331.76227,1128.3513C329.21533,1128.3442,327.15814,1126.2749,327.16608,1123.7285L327.17218,1121.4233 Z M306.58838,1066.0422C306.59753,1063.4973,308.6662,1061.4404,311.21313,1061.4475L318.12848,1061.468C320.67535,1061.4753,322.7312,1063.5435,322.72308,1066.0894L322.7166,1068.3948C322.70953,1070.9409,320.6408,1072.9988,318.09387,1072.992L311.17853,1072.9719C308.63153,1072.9641,306.57477,1070.8943,306.58215,1068.3477L306.58838,1066.0422 Z M306.53522,1084.4836C306.54327,1081.9363,308.61145,1079.8784,311.15857,1079.8865L318.0739,1079.9067C320.6209,1079.9153,322.67712,1081.9832,322.6701,1084.531L322.6635,1086.8352C322.6551,1089.3816,320.58722,1091.44,318.04028,1091.4324L311.12494,1091.4106C308.57812,1091.404,306.52118,1089.3342,306.52875,1086.7876L306.53522,1084.4836 Z M306.48132,1102.9236C306.48877,1100.3767,308.5583,1098.3193,311.10504,1098.3274L318.02045,1098.3472C320.5675,1098.3542,322.62317,1100.4233,322.6161,1102.9695L322.60944,1105.2749C322.60193,1107.8215,320.5337,1109.8796,317.98676,1109.8726L311.0713,1109.8528C308.52454,1109.844,306.46765,1107.7754,306.47522,1105.228L306.48132,1102.9236 Z M306.42792,1121.3628C306.43488,1118.8164,308.5041,1116.7593,311.05103,1116.7664L317.96625,1116.7871C320.51324,1116.7947,322.56946,1118.8623,322.5622,1121.4092L322.55603,1123.7141C322.54803,1126.2615,320.4796,1128.3201,317.93268,1128.3125L311.0174,1128.2922C308.47095,1128.2842,306.41315,1126.2158,306.42126,1123.6685L306.42792,1121.3628 Z M285.84418,1065.9814C285.85272,1063.4363,287.92212,1061.3792,290.469,1061.3862L297.38312,1061.407C299.93024,1061.4143,301.9879,1063.4834,301.97937,1066.0295L301.9723,1068.3347C301.9649,1070.8813,299.89606,1072.9385,297.34906,1072.9309L290.43433,1072.9106C287.8874,1072.9031,285.83014,1070.834,285.83704,1068.2869L285.84418,1065.9814 Z M285.79065,1084.4226C285.79816,1081.8752,287.8675,1079.8186,290.41388,1079.8247L297.32922,1079.8467C299.8761,1079.853,301.93347,1081.9233,301.92596,1084.4695L301.91876,1086.7747C301.9112,1089.321,299.84198,1091.3787,297.29492,1091.3708L290.3802,1091.3503C287.83325,1091.3433,285.77588,1089.2739,285.784,1086.7275L285.79065,1084.4226 Z M285.73712,1102.8625C285.74414,1100.3159,287.81335,1098.2588,290.35986,1098.2654L297.27515,1098.2856C299.82208,1098.2942,301.8792,1100.363,301.87122,1102.9104L301.86517,1105.2144C301.85767,1107.7625,299.7884,1109.8198,297.2414,1109.8108L290.32623,1109.7917C287.78027,1109.783,285.72302,1107.7144,285.72992,1105.1677L285.73712,1102.8625 Z M285.6831,1121.3018C285.68994,1118.7546,287.7588,1116.698,290.30566,1116.7053L297.22107,1116.7256C299.76813,1116.7336,301.8252,1118.8022,301.81775,1121.3496L301.8111,1123.6536C301.80408,1126.2009,299.73486,1128.2585,297.18793,1128.2505L290.2727,1128.2302C287.7262,1128.2227,285.66888,1126.1533,285.67603,1123.6069L285.6831,1121.3018 Z"/> </g> <g style="fill:rgb(0,0,0); fill-opacity:1.0; stroke-linejoin: miter"> <path d="M354.9801,1070.7947L357.28497,1070.802L357.2921,1068.4968L359.597,1068.5027L359.60394,1066.199L357.29834,1066.1914L357.3056,1063.8867L355.00055,1063.8804L354.9942,1066.1843L352.68878,1066.1787L352.68225,1068.4834L354.98682,1068.4895 Z"/> </g> <g style="fill:rgb(0,0,0); fill-opacity:1.0; stroke-linejoin: miter"> <path d="M352.56128,1109.9731L359.476,1109.9937L359.47003,1112.2991L352.55463,1112.2786L352.56128,1109.9731 Z"/> </g> <g style="fill:rgb(0,0,0); fill-opacity:1.0; stroke-linejoin: miter"> <path d="M352.63513,1084.6187L359.55054,1084.6389L359.5434,1086.9441L352.628,1086.9236L352.63513,1084.6187 Z"/> </g> <g style="fill:rgb(0,0,0); fill-opacity:1.0; stroke-linejoin: miter"> <path d="M352.54742,1114.5828L359.46277,1114.6035L359.45557,1116.9075L352.54034,1116.8872L352.54742,1114.5828 Z"/> </g> <g style="fill:rgb(60,70,79); fill-opacity:1.0; stroke-linejoin: miter"> <path d="M276.5631,1022.8995L276.39276,1052.1653L276.57904,1052.1877L371.91486,1052.7217L372.08514,1023.4549L276.563,1022.9205"/> </g> <g style="fill:rgb(166,216,255); fill-opacity:1.0; stroke-linejoin: miter"> <path d="M282.17023,1027.6304L282.05475,1047.4995L282.21912,1047.5227L366.30804,1047.9895L366.4237,1028.1199L282.17023,1027.6511"/> </g> <g style="fill:rgb(125,139,150); fill-opacity:1.0; stroke-linejoin: miter"> <path d="M357.24493,1063.9465L357.23804,1066.1909C357.2379,1066.207,357.24426,1066.2227,357.25555,1066.2339C357.26685,1066.2449,357.28198,1066.2517,357.29785,1066.2517L357.29797,1066.2522L359.54346,1066.2585L359.53662,1068.4421L357.29224,1068.4363C357.2591,1068.4363,357.23193,1068.4631,357.23175,1068.4963L357.2248,1070.7412L355.04065,1070.7349L355.047,1068.4897C355.047,1068.4739,355.04077,1068.4585,355.0296,1068.4473C355.01825,1068.436,355.00305,1068.4294,354.98724,1068.4292L354.98694,1068.4299L352.7425,1068.4233L352.74878,1066.2388L354.99396,1066.2446C355.02704,1066.2446,355.05414,1066.2175,355.05426,1066.185L355.0606,1063.9407L357.24493,1063.9465 Z M359.62872,1061.5278L359.62323,1061.529L359.61743,1061.5286L352.7027,1061.5078C350.12238,1061.5,348.026,1063.5852,348.0183,1066.1636L348.01117,1068.469C348.0036,1071.0442,350.08105,1073.1384,352.65497,1073.1533L352.65527,1073.1538L352.6621,1073.1533L352.66876,1073.1538L359.58392,1073.1736C362.1632,1073.1812,364.25952,1071.0972,364.2672,1068.5164L364.274,1066.2124C364.28186,1063.6365,362.20398,1061.543,359.6292,1061.5281 Z"/> </g> </g> </svg>